<svg width="50" height="50" viewBox="0 0 50 50" fill="none" xmlns="http://www.w3.org/2000/svg">
<g id="vuesax/bold/discount-shape">
<g id="discount-shape">
<path id="Vector" d="M44.8538 22.6458L41.6872 19.4791C41.1455 18.9374 40.708 17.8749 40.708 17.1249V12.6249C40.708 10.7916 39.208 9.29159 37.3747 9.29159H32.8955C32.1455 9.29159 31.083 8.85409 30.5413 8.31242L27.3747 5.14575C26.083 3.85409 23.958 3.85409 22.6663 5.14575L19.458 8.31242C18.9372 8.85409 17.8747 9.29159 17.1038 9.29159H12.6247C10.7913 9.29159 9.29134 10.7916 9.29134 12.6249V17.1041C9.29134 17.8541 8.85384 18.9166 8.31217 19.4583L5.14551 22.6249C3.85384 23.9166 3.85384 26.0416 5.14551 27.3333L8.31217 30.4999C8.85384 31.0416 9.29134 32.1041 9.29134 32.8541V37.3333C9.29134 39.1666 10.7913 40.6666 12.6247 40.6666H17.1038C17.8538 40.6666 18.9163 41.1041 19.458 41.6458L22.6247 44.8124C23.9163 46.1041 26.0413 46.1041 27.333 44.8124L30.4997 41.6458C31.0413 41.1041 32.1038 40.6666 32.8538 40.6666H37.333C39.1663 40.6666 40.6663 39.1666 40.6663 37.3333V32.8541C40.6663 32.1041 41.1038 31.0416 41.6455 30.4999L44.8122 27.3333C46.1663 26.0624 46.1663 23.9374 44.8538 22.6458ZM16.6663 18.7499C16.6663 17.6041 17.6038 16.6666 18.7497 16.6666C19.8955 16.6666 20.833 17.6041 20.833 18.7499C20.833 19.8958 19.9163 20.8333 18.7497 20.8333C17.6038 20.8333 16.6663 19.8958 16.6663 18.7499ZM19.8538 32.3541C19.5413 32.6666 19.1455 32.8124 18.7497 32.8124C18.3538 32.8124 17.958 32.6666 17.6455 32.3541C17.0413 31.7499 17.0413 30.7499 17.6455 30.1458L30.1455 17.6458C30.7497 17.0416 31.7497 17.0416 32.3538 17.6458C32.958 18.2499 32.958 19.2499 32.3538 19.8541L19.8538 32.3541ZM31.2497 33.3333C30.083 33.3333 29.1455 32.3958 29.1455 31.2499C29.1455 30.1041 30.083 29.1666 31.2288 29.1666C32.3747 29.1666 33.3122 30.1041 33.3122 31.2499C33.3122 32.3958 32.3955 33.3333 31.2497 33.3333Z" fill="url(#paint0_linear_1164_559)"/>
</g>
</g>
<defs>
<linearGradient id="paint0_linear_1164_559" x1="0.457447" y1="-9.29324" x2="51.0075" y2="-5.23952" gradientUnits="userSpaceOnUse">
<stop stop-color="#F5791E"/>
<stop offset="1" stop-color="#FBBC04"/>
</linearGradient>
</defs>
</svg>
