<svg width="28" height="28" viewBox="0 0 28 28" fill="none" xmlns="http://www.w3.org/2000/svg">
<g id="vuesax/bold/eye-slash">
<path id="Vector" d="M24.8153 10.7099C24.477 10.1733 24.1153 9.6716 23.742 9.20494C23.3103 8.6566 22.4937 8.60994 22.0037 9.09994L18.5037 12.5999C18.7603 13.3699 18.807 14.2566 18.5737 15.1783C18.1653 16.8233 16.8353 18.1533 15.1903 18.5616C14.2687 18.7949 13.382 18.7483 12.612 18.4916C12.612 18.4916 10.9437 20.1599 9.74201 21.3616C9.15868 21.9449 9.34535 22.9716 10.127 23.2749C11.3753 23.7533 12.6703 23.9983 14.0003 23.9983C16.077 23.9983 18.0953 23.3916 19.9387 22.2599C21.817 21.0933 23.5087 19.3783 24.8737 17.1966C25.982 15.4349 25.9237 12.4716 24.8153 10.7099Z" fill="#B1B8C1"/>
<path id="Vector_2" d="M16.3574 11.6433L11.6441 16.3567C11.0491 15.75 10.6641 14.91 10.6641 14C10.6641 12.1683 12.1574 10.6633 14.0007 10.6633C14.9107 10.6633 15.7507 11.0483 16.3574 11.6433Z" fill="#B1B8C1"/>
<path id="Vector_3" d="M21.2923 6.70838L17.3373 10.6634C16.4857 9.80004 15.3073 9.28671 14.0007 9.28671C11.3873 9.28671 9.28732 11.3984 9.28732 14C9.28732 15.3067 9.81232 16.485 10.664 17.3367L6.72065 21.2917H6.70898C5.41398 20.2417 4.22398 18.9 3.20898 17.3134C2.04232 15.4817 2.04232 12.5067 3.20898 10.675C4.56232 8.55171 6.21898 6.88338 8.06232 5.74004C9.90565 4.62004 11.924 4.00171 14.0007 4.00171C16.6023 4.00171 19.1223 4.95838 21.2923 6.70838Z" fill="#B1B8C1"/>
<path id="Vector_4" d="M17.3358 14.0001C17.3358 15.8318 15.8424 17.3368 13.9991 17.3368C13.9291 17.3368 13.8708 17.3368 13.8008 17.3134L17.3124 13.8018C17.3358 13.8718 17.3358 13.9301 17.3358 14.0001Z" fill="#B1B8C1"/>
<path id="Vector_5" d="M25.399 2.60161C25.049 2.25161 24.4773 2.25161 24.1273 2.60161L2.60234 24.1383C2.25234 24.4883 2.25234 25.0599 2.60234 25.4099C2.77734 25.5733 2.99901 25.6666 3.23234 25.6666C3.46568 25.6666 3.68734 25.5733 3.86234 25.3983L25.399 3.86161C25.7607 3.51161 25.7607 2.95161 25.399 2.60161Z" fill="#B1B8C1"/>
</g>
</svg>
